<svg xmlns="http://www.w3.org/2000/svg" width="2453" height="487" fill="none" ><g clip-path="url(#A)"><g fill="#000"><path d="M37.795 75.309c-3.326-5.124-3.205-8.701.456-13.685 19.936-27.156 46.719-41.055 79.576-41.325l67.745-.242 95.022.13c1.186.025 2.368.128 3.54.307h0l-4.294 4.546-30.938 30.938-84.719 84.774c-3.614 3.634-6.717 5.124-10.695 5.124-.857-.004-1.713-.069-2.561-.196-49.961-7.052-86.964-30.09-113.132-70.372zm368.917 380.293c.55.391 1.127.726 1.714 1.071l-.074.829c-3.233.736-6.466 1.602-9.698 2.469-7.816 2.096-15.893 4.257-23.718 4.36l-86.685.493c-27.103 0-54.196-.071-81.281-.214l-11.179-.046-5.887.046-36.789.242-.829-4.928-1.928-12.222c-1.127-7.816-2.143-15.287-4.071-22.191-.259-.996-.57-1.979-.932-2.943-5.744-19.82-16.454-37.844-31.115-52.366a121.19 121.19 0 0 0-52.662-30.611 120.91 120.91 0 0 0-25.805-4.415c-6.288-.42-11.067-2.143-14.393-5.227l.056-35.074v-4.071-177.542c0-6.586 1.258-13.368 2.431-19.936l1.267-7.266.596.764 3.4 4.481c27.948 38.894 66.935 62.286 115.787 69.533 6.623.988 9.045 2.432 10.396 9.009 16.936 83.041 72.487 137.157 156.423 152.379 2.189.401 5.505 3.047 5.906 4.714 12.809 53.52 42.769 96.811 89.069 128.662zm57.59-219.389l-.084 129.975c-.102 30.388-11.738 55.849-34.58 75.664-2.413 2.096-4.304 3.027-6.139 3.027-1.677 0-3.578-.773-6-2.441-42.732-29.494-69.561-67.148-82.026-115.125-1.677-6.521-.55-10.639 4.192-15.343l87.113-87.094 33.099-33.193c1.23-1.229 2.534-2.385 4.164-3.819.131 1.937.233 3.465.233 5.002l.028 43.347zm.253-79.958c-.176 3.424-1.506 6.688-3.773 9.26L323.839 303.017a10.98 10.98 0 0 1-6.652 2.972h-.568C202.714 287.46 176.788 200.067 170.928 163.344c-.382-2.403 1.165-6.521 3.261-8.617l129.09-129.025c2.515-2.487 7.22-4.444 11.44-4.77s8.691-.428 13.042-.428l20.122.186.056-.932 11.179.55c9.549.419 19.433.838 28.814 2.599 43.31 8.096 75.58 46.263 76.744 90.755.391 15.11.354 29.037-.121 42.592z"/></g><path d="M408.426 456.673l-.074.829c-3.233.736-6.465 1.602-9.698 2.469-7.816 2.096-15.893 4.257-23.718 4.36l-86.684.493c-27.103 0-54.197-.071-81.281-.214l-11.179-.046-5.888.046-36.788.242-.829-4.928-1.929-12.222c-1.127-7.816-2.142-15.287-4.071-22.191a29.73 29.73 0 0 0-.931-2.943c-5.745-19.82-16.455-37.844-31.116-52.366s-32.788-25.057-52.662-30.611c-8.263-2.357-26.848-8.319-40.151-9.642l.056-35.074v-4.071-177.542c0-6.586 1.258-13.368 2.431-19.936l1.267-7.266.596.764 3.4 4.481c27.948 38.894 66.935 62.286 115.787 69.533 6.624.988 9.046 2.432 10.397 9.009 16.936 83.041 72.487 137.157 156.423 152.379 2.189.401 5.505 3.047 5.906 4.714 12.781 53.52 42.741 96.811 89.041 128.662.531.391 1.109.726 1.695 1.071z" fill="#f8daa6"/><path d="M464.555 156.255c-.176 3.424-1.506 6.688-3.773 9.26L323.839 303.017a10.98 10.98 0 0 1-6.652 2.972h-.568C202.714 287.46 176.788 200.068 170.928 163.344c-.382-2.403 1.165-6.521 3.261-8.617l129.09-129.024c2.515-2.487 7.22-4.444 11.44-4.77s8.691-.428 13.042-.428l31.329-.214c9.549.419 19.433.838 28.814 2.599 43.31 8.095 75.58 46.263 76.744 90.755.419 15.129.382 29.056-.093 42.611z" fill="#1ab586"/><path d="M464.218 366.188c-.102 30.388-11.738 55.849-34.58 75.664-2.413 2.096-4.304 3.027-6.139 3.027-1.677 0-3.578-.773-6-2.441-42.732-29.494-69.561-67.148-82.026-115.125-1.677-6.521-.55-10.639 4.192-15.343l87.113-87.094 33.099-33.193c1.23-1.229 2.534-2.385 4.164-3.819.131 1.937.233 3.465.233 5.002v43.347l-.056 129.975z" fill="#14996d"/><path d="M284.134 20.495l-4.294 4.546-30.938 30.938-84.719 84.774c-3.614 3.634-6.717 5.124-10.695 5.124-.857-.004-1.713-.069-2.561-.196-49.961-7.08-86.964-30.118-113.132-70.4-3.326-5.124-3.205-8.701.456-13.685 19.936-27.128 46.719-41.027 79.576-41.297l67.745-.242 95.022.13c1.186.025 2.368.128 3.54.307h0z" fill="#31c997"/><g fill="#000"><path d="M485.506 113.421C485.506 49.924 435.47 0 371.852 0H114.893C50.595 0 .112 50.371 0 114.669v370.157h372.309c63.347 0 113.085-49.691 113.197-112.974V113.421zm-20.952 42.853c-.176 3.424-1.506 6.687-3.773 9.26L323.838 303.036c-1.814 1.718-4.161 2.767-6.651 2.972h-.569c-113.905-18.548-139.831-105.94-145.69-142.664-.382-2.403 1.164-6.521 3.26-8.617l129.09-129.024c2.515-2.487 7.22-4.444 11.44-4.77s8.692-.429 13.042-.429l31.329-.214c9.549.419 19.433.838 28.814 2.599 43.31 8.096 75.58 46.263 76.744 90.755.42 15.129.382 29.056-.093 42.611v.019zm-.335 209.933c-.103 30.388-11.738 55.848-34.581 75.663-2.412 2.096-4.303 3.028-6.139 3.028-1.677 0-3.577-.773-5.999-2.441-42.732-29.494-69.562-67.149-82.026-115.125-1.677-6.522-.55-10.639 4.192-15.344l87.112-87.094 33.1-33.192c1.229-1.23 2.534-2.385 4.164-3.82.13 1.938.233 3.466.233 5.003v43.347l-.056 129.956v.019zM38.251 61.625C58.187 34.469 84.97 20.57 117.827 20.3l67.745-.242 95.022.13a27.21 27.21 0 0 1 3.54.307h0l-4.295 4.546-30.938 30.938-84.718 84.774c-3.615 3.634-6.717 5.124-10.695 5.124-.857-.004-1.713-.069-2.562-.195-49.961-7.081-86.963-30.119-113.131-70.4-3.326-5.096-3.205-8.673.456-13.657zm113.998 398.299l-1.928-12.222c-1.127-7.816-2.143-15.287-4.071-22.19a29.41 29.41 0 0 0-.932-2.944c-5.741-19.816-16.445-37.837-31.1-52.358a121.18 121.18 0 0 0-52.64-30.619c-8.263-2.375-36.872-6.521-40.198-9.642l.056-35.074v-4.071-177.542c0-6.586 1.258-13.368 2.432-19.936l1.267-7.266.596.764 3.4 4.481c27.948 38.894 66.935 62.286 115.787 69.533 6.623.988 9.045 2.432 10.396 9.009 16.936 83.042 72.487 137.157 156.423 152.38 2.189.4 5.506 3.046 5.906 4.713 12.781 53.52 42.741 96.811 89.041 128.662.55.391 1.127.726 1.714 1.071l-.074.829c-3.233.736-6.465 1.603-9.698 2.469-7.816 2.096-15.893 4.257-23.718 4.36l-86.684.493c-27.103 0-54.197-.071-81.281-.214l-11.179-.046-5.888.046-36.788.242-.839-4.928zm697.647-221.233c-.003 6.29-.477 12.571-1.416 18.79H664.277a60.29 60.29 0 0 0 22.61 31.795c10.771 7.941 23.835 12.16 37.217 12.018 19.153 0 35.015-7.381 47.585-22.144l38.633 51.349c-24.221 22.936-52.961 34.4-86.218 34.394-35.494 0-65.41-12.145-89.749-36.434s-36.509-54.153-36.509-89.591c0-35.114 12.25-64.817 36.751-89.106s54.336-36.438 89.507-36.444c35.176 0 64.937 12.129 89.283 36.388s36.515 53.92 36.509 88.985zm-71.09-28.795c-11.626-21.986-29.845-32.978-54.656-32.978-25.128 0-43.502 10.992-55.122 32.978h109.778zm295.314 75.663c0 15.111-5.03 28.805-15.08 41.083-20.11 24.557-48.67 36.357-85.708 35.401-14.788-.299-30.876-3.599-48.266-9.903s-31.612-14.145-42.667-23.523l35.335-45.694c16.955 16.017 35.016 24.026 54.182 24.026h1.406c7.29.114 14.52-1.335 21.203-4.248 8.165-3.764 12.245-9.102 12.255-16.014v-1.864c-.94-7.229-5.82-12.427-14.64-15.594l-22.144-4.239c-14.135-2.832-26.068-6.288-35.8-10.369-28.569-12.253-42.853-33.767-42.853-64.54 0-29.519 14.594-51.663 43.784-66.431 12.995-6.622 27.338-10.166 41.922-10.36 15.7-.304 32.031 2.367 48.991 8.012 19.47 6.596 33.29 15.231 41.47 25.907l-42.41 38.195c-10.99-11.297-22.93-16.948-35.801-16.954-20.104 0-30.156 6.611-30.156 19.833v.932c0 6.303 8.167 11.657 24.501 16.06 1.242.317 11.608 2.363 31.096 6.139 39.59 7.559 59.38 31.798 59.38 72.72v1.425zm224.27 0c0 15.111-5.02 28.805-15.07 41.083-20.11 24.557-48.68 36.357-85.71 35.401-14.76-.317-30.86-3.615-48.28-9.894-17.43-6.279-31.64-14.132-42.64-23.56l35.33-45.694c16.96 16.017 35.02 24.026 54.18 24.026h1.41c7.29.113 14.52-1.335 21.2-4.249 8.16-3.763 12.25-9.101 12.25-16.013v-1.864c-.94-7.216-5.81-12.399-14.6-15.548l-22.15-4.239c-14.13-2.832-26.07-6.288-35.8-10.368-28.57-12.254-42.85-33.767-42.85-64.54 0-29.519 14.59-51.663 43.78-66.432a95.15 95.15 0 0 1 41.92-10.359c15.7-.304 32.04 2.366 49 8.012 19.47 6.595 33.29 15.231 41.45 25.907l-42.39 38.195c-11-11.297-22.93-16.949-35.8-16.955-20.11 0-30.16 6.611-30.16 19.834v.931c0 6.304 8.17 11.657 24.5 16.061 1.24.316 11.61 2.363 31.1 6.139 39.57 7.558 59.35 31.801 59.35 72.729l-.02 1.397zm336.38 72.263h-67.64l-13.34-36.769c-25.12 29.537-57.16 44.309-96.13 44.315-35.18 0-64.95-12.25-89.3-36.751s-36.52-54.181-36.52-89.041c0-26.705 7.54-50.812 22.61-72.319 15.08-21.507 35.18-36.816 60.31-45.927 13.87-5.177 28.54-7.889 43.34-8.012 26.71 0 50.81 7.618 72.32 22.852s36.82 35.419 45.93 60.553l58.42 161.099zm-114.48-118.479c0-22.072-8.95-39.254-26.85-51.544-10.37-7.248-22.3-10.875-35.81-10.881-21.99 0-38.95 8.828-50.88 26.485a62.45 62.45 0 0 0-11.31 35.94c0 21.737 8.95 38.76 26.86 51.07 10.98 7.564 22.76 11.347 35.33 11.347 17.26 0 32.02-6.068 44.28-18.204s18.39-26.873 18.38-44.213zm399.97 121.004c0 35.438-12.17 65.248-36.51 89.432s-54.25 36.261-89.75 36.23v-63.637c17.27 0 32.04-6.046 44.29-18.138s18.37-26.777 18.36-44.055v-11.3c-19.08 10.884-40.69 16.57-62.66 16.489-35.17 0-65.01-12.225-89.51-36.676s-36.75-54.234-36.74-89.349V113.318h63.59v125.941c0 17.235 6.07 31.96 18.21 44.176 12.13 12.216 26.87 18.325 44.22 18.325 17.33 0 32.15-6.109 44.45-18.325 12.29-12.216 18.44-26.941 18.44-44.176V113.318h63.6l.01 247.029zm103.53-21.636c3.46 4.664 7.24 7.95 11.34 9.858 4.17 1.908 8.73 2.862 13.68 2.862 10.1 0 17.84-3.569 23.21-10.706s8.06-17.773 8.06-31.906c0-13.144-2.41-22.79-7.21-28.938-4.74-6.219-11.52-9.328-20.35-9.328-6.15 0-11.52 1.413-16.12 4.24-4.52 2.827-8.72 6.819-12.61 11.978v51.94zm0-66.038c4.52-5.229 9.61-9.399 15.26-12.508 5.73-3.109 12.3-4.664 19.72-4.664 6.29 0 11.94 1.201 16.96 3.604 5.09 2.403 9.4 5.901 12.93 10.494 3.53 4.523 6.22 10.035 8.06 16.536 1.91 6.501 2.86 13.815 2.86 21.942 0 8.692-1.06 16.607-3.18 23.744s-5.19 13.25-9.22 18.338c-3.96 5.017-8.8 8.939-14.52 11.766-5.73 2.756-12.16 4.134-19.3 4.134-7.06 0-13.03-1.307-17.91-3.922-4.81-2.685-9.01-6.466-12.61-11.342l-.96 9.752c-.56 2.685-2.19 4.028-4.87 4.028h-12.19V208.437h18.97v64.236zm171.52 26.5c0-4.381-.63-8.374-1.91-11.978-1.2-3.675-3-6.819-5.4-9.434-2.33-2.685-5.2-4.735-8.59-6.148-3.39-1.484-7.24-2.226-11.55-2.226-9.05 0-16.22 2.65-21.52 7.95-5.23 5.229-8.48 12.508-9.75 21.836h58.72zm15.27 50.35c-2.34 2.827-5.13 5.3-8.38 7.42-3.25 2.049-6.75 3.745-10.49 5.088a61.94 61.94 0 0 1-11.45 2.968c-3.96.707-7.88 1.06-11.77 1.06-7.42 0-14.27-1.237-20.56-3.71-6.22-2.544-11.62-6.219-16.22-11.024-4.52-4.876-8.05-10.883-10.6-18.02-2.54-7.137-3.81-15.335-3.81-24.592 0-7.491 1.13-14.487 3.39-20.988 2.33-6.501 5.65-12.119 9.96-16.854 4.31-4.805 9.58-8.551 15.8-11.236 6.21-2.756 13.21-4.134 20.98-4.134 6.43 0 12.37 1.095 17.81 3.286 5.51 2.12 10.25 5.229 14.21 9.328 4.02 4.028 7.17 9.045 9.43 15.052 2.26 5.936 3.39 12.72 3.39 20.352 0 2.968-.32 4.947-.95 5.936-.64.989-1.84 1.484-3.61 1.484h-71.76c.21 6.784 1.13 12.685 2.76 17.702 1.69 5.017 4.03 9.222 6.99 12.614 2.97 3.321 6.51 5.83 10.6 7.526 4.1 1.625 8.7 2.438 13.78 2.438 4.74 0 8.8-.53 12.19-1.59 3.47-1.131 6.43-2.332 8.91-3.604 2.47-1.272 4.52-2.438 6.15-3.498 1.69-1.131 3.14-1.696 4.34-1.696 1.56 0 2.76.601 3.61 1.802l5.3 6.89zm57.01 16.748c-8.48 0-15.02-2.367-19.61-7.102-4.53-4.735-6.79-11.554-6.79-20.458v-65.72h-12.93c-1.13 0-2.08-.318-2.86-.954-.78-.707-1.17-1.767-1.17-3.18v-7.526l17.6-2.226 4.34-33.178c.22-1.06.68-1.908 1.38-2.544.78-.707 1.77-1.06 2.97-1.06h9.54v36.994h31.06v13.674h-31.06v64.448c0 4.523 1.1 7.879 3.29 10.07s5.01 3.286 8.48 3.286c1.97 0 3.67-.247 5.08-.742 1.49-.565 2.76-1.166 3.82-1.802s1.94-1.201 2.65-1.696c.78-.565 1.45-.848 2.01-.848.99 0 1.88.601 2.65 1.802l5.52 9.01c-3.25 3.039-7.18 5.441-11.77 7.208a40.68 40.68 0 0 1-14.2 2.544zm101.2-50.032c-8.69.283-16.11.989-22.26 2.12-6.07 1.06-11.06 2.473-14.94 4.24-3.82 1.767-6.61 3.851-8.38 6.254a13.68 13.68 0 0 0-2.54 8.056c0 2.827.46 5.265 1.38 7.314s2.15 3.745 3.71 5.088c1.62 1.272 3.5 2.226 5.62 2.862 2.19.565 4.52.848 6.99.848 3.32 0 6.36-.318 9.12-.954 2.75-.707 5.33-1.696 7.74-2.968 2.47-1.272 4.8-2.791 6.99-4.558 2.26-1.767 4.45-3.781 6.57-6.042v-22.26zm-60.95-43.884c5.94-5.724 12.34-9.999 19.19-12.826s14.45-4.24 22.79-4.24c6.01 0 11.34.989 16.01 2.968 4.66 1.979 8.58 4.735 11.76 8.268s5.58 7.809 7.21 12.826 2.44 10.529 2.44 16.536v68.688h-8.38c-1.83 0-3.25-.283-4.24-.848-.99-.636-1.76-1.837-2.33-3.604l-2.12-10.176c-2.82 2.615-5.58 4.947-8.27 6.996-2.68 1.979-5.51 3.675-8.48 5.088-2.96 1.343-6.14 2.367-9.54 3.074-3.32.777-7.03 1.166-11.13 1.166-4.17 0-8.09-.565-11.76-1.696-3.68-1.201-6.89-2.968-9.65-5.3-2.68-2.332-4.84-5.265-6.46-8.798-1.56-3.604-2.34-7.844-2.34-12.72 0-4.24 1.17-8.303 3.5-12.19 2.33-3.957 6.11-7.455 11.34-10.494s12.05-5.512 20.46-7.42c8.41-1.979 18.73-3.109 30.95-3.392v-8.374c0-8.339-1.8-14.628-5.4-18.868-3.61-4.311-8.87-6.466-15.8-6.466-4.66 0-8.58.601-11.76 1.802-3.11 1.131-5.83 2.438-8.16 3.922-2.27 1.413-4.24 2.721-5.94 3.922-1.63 1.131-3.25 1.696-4.88 1.696-1.27 0-2.36-.318-3.28-.954-.92-.707-1.7-1.555-2.33-2.544l-3.4-6.042zm104.96 80.56c0-1.837.32-3.569.95-5.194.71-1.625 1.63-3.039 2.76-4.24 1.2-1.201 2.61-2.155 4.24-2.862 1.62-.707 3.36-1.06 5.19-1.06 1.84 0 3.57.353 5.2 1.06 1.62.707 3.04 1.661 4.24 2.862s2.15 2.615 2.86 4.24 1.06 3.357 1.06 5.194c0 1.908-.35 3.675-1.06 5.3a14.05 14.05 0 0 1-2.86 4.134c-1.2 1.201-2.62 2.12-4.24 2.756-1.63.707-3.36 1.06-5.2 1.06-1.83 0-3.57-.353-5.19-1.06a12.17 12.17 0 0 1-4.24-2.756c-1.13-1.201-2.05-2.579-2.76-4.134-.63-1.625-.95-3.392-.95-5.3z"/></g></g><defs><clipPath id="A"><path fill="#fff" d="M0 0h2452.87v486.288H0z"/></clipPath></defs></svg>